<?xml version="1.0" encoding="utf-8"?>
<!-- Svg Vector Icons : http://www.onlinewebfonts.com/icon -->
<!DOCTYPE svg PUBLIC "-//W3C//DTD SVG 1.1//EN" "http://www.w3.org/Graphics/SVG/1.1/DTD/svg11.dtd">
<svg version="1.1" xmlns="http://www.w3.org/2000/svg" xmlns:xlink="http://www.w3.org/1999/xlink" x="0px" y="0px" viewBox="0 0 1000 1000" enable-background="new 0 0 1000 1000" xml:space="preserve">
<metadata> Svg Vector Icons : http://www.onlinewebfonts.com/icon </metadata>
<g><path d="M260.1,340.4c87.9,0,159.1,71.4,159.1,159.6c0,88.1-71.3,159.6-159.1,159.6c-3,0-5.8-0.7-8.8-0.9v82.6c3,0.1,5.7,0.9,8.8,0.9c133.3,0,241.5-108.4,241.5-242.2c0-133.8-108.1-242.2-241.5-242.2c-3,0-5.8,0.8-8.8,0.9v82.6C254.3,341.1,257.1,340.4,260.1,340.4z"/><path d="M260.1,175.2C439,175.2,584,320.6,584,500c0,179.3-145,324.8-323.9,324.8c-3,0-5.9-0.4-8.8-0.5V907c3,0.1,5.8,0.5,8.8,0.5c224.3,0,406.2-182.4,406.2-407.4c0-225.1-181.9-407.4-406.2-407.4c-3,0-5.8,0.4-8.8,0.4v82.6C254.3,175.6,257.1,175.2,260.1,175.2z"/><path d="M260.1,577c42.4,0,76.8-34.5,76.8-77c0-42.5-34.4-77-76.8-77c-3.1,0-5.7,1.4-8.8,1.8v150.4C254.4,575.6,257,577,260.1,577z"/><path d="M260.1,10c-3,0-5.8,0.4-8.8,0.4V93c3-0.1,5.8-0.5,8.8-0.5C484.4,92.5,666.3,275,666.3,500c0,225-181.9,407.4-406.2,407.4c-3,0-5.8-0.4-8.8-0.5v82.6c3,0.1,5.8,0.5,8.8,0.5c269.8,0,488.6-219.4,488.6-490C748.7,229.4,529.9,10,260.1,10z"/><path d="M584,500c0-179.4-145-324.8-323.9-324.8c-3,0-5.8,0.4-8.8,0.5v83c3-0.1,5.7-0.9,8.8-0.9c133.3,0,241.5,108.4,241.5,242.2c0,133.8-108.1,242.2-241.5,242.2c-3,0-5.8-0.8-8.8-0.9v83c3,0.1,5.8,0.5,8.8,0.5C439,824.8,584,679.4,584,500z"/><path d="M419.2,500c0-88.2-71.3-159.6-159.1-159.6c-3,0-5.8,0.7-8.8,0.9v83.5c3-0.4,5.7-1.8,8.8-1.8c42.4,0,76.8,34.5,76.8,77c0,42.5-34.4,77-76.8,77c-3.1,0-5.7-1.4-8.8-1.8v83.5c3,0.2,5.7,0.9,8.8,0.9C348,659.6,419.2,588.1,419.2,500z"/></g>
</svg>