<?xml version="1.0" standalone="no"?>
<!DOCTYPE svg PUBLIC "-//W3C//DTD SVG 20010904//EN"
 "http://www.w3.org/TR/2001/REC-SVG-20010904/DTD/svg10.dtd">
<svg version="1.0" xmlns="http://www.w3.org/2000/svg"
 width="512.000000pt" height="512.000000pt" viewBox="0 0 512.000000 512.000000"
 preserveAspectRatio="xMidYMid meet">
<metadata>
Created by potrace 1.11, written by Peter Selinger 2001-2013
</metadata>
<g transform="translate(0.000000,512.000000) scale(0.100000,-0.100000)"
fill="#000000" stroke="none">
<path d="M2487 4043 c-2 -1 -24 -5 -49 -8 -25 -3 -57 -8 -69 -11 -13 -3 -35
-7 -48 -10 -14 -3 -28 -7 -33 -10 -5 -3 -19 -7 -32 -10 -82 -14 -291 -117
-411 -202 -120 -84 -255 -231 -324 -352 -47 -82 -111 -204 -111 -212 0 -16
-22 -8 -67 27 -60 46 -100 53 -166 28 -29 -10 -63 -18 -77 -16 -128 13 -195 1
-314 -59 -92 -47 -145 -107 -196 -224 l-44 -101 -80 37 c-191 88 -269 99 -394
59 l-72 -23 0 -48 c0 -47 6 -57 26 -40 44 39 202 57 281 32 89 -29 115 -69
128 -200 3 -30 7 -66 9 -80 21 -130 27 -174 29 -227 1 -35 3 -63 5 -63 1 0 14
7 27 16 25 16 25 16 26 -17 1 -19 1 -40 0 -46 -5 -35 30 1 55 57 17 36 22 160
9 210 -4 14 -8 70 -10 125 -3 91 0 109 29 195 53 158 119 233 244 275 113 38
209 21 232 -41 6 -14 12 -84 14 -157 6 -156 9 -180 43 -317 31 -129 63 -201
114 -262 30 -36 38 -53 34 -71 -11 -41 57 -59 137 -37 43 12 68 42 63 74 -2
11 -8 48 -14 81 -10 63 -16 120 -27 246 -3 42 -14 118 -24 170 -33 169 -14
290 71 464 87 178 241 358 393 460 183 121 436 203 651 210 181 6 322 -30 400
-100 17 -15 66 -54 110 -87 89 -67 106 -89 98 -133 -16 -97 -46 -131 -141
-166 -166 -59 -285 -289 -316 -612 -4 -38 -16 -130 -22 -172 -10 -65 -27 -113
-62 -175 -37 -65 -71 -135 -110 -220 -30 -67 -97 -270 -130 -395 -32 -118 -39
-150 -62 -282 -12 -73 -15 -202 -4 -259 11 -62 55 -143 97 -179 29 -25 55 -36
105 -45 119 -21 138 -18 230 36 46 27 99 58 118 69 18 11 34 26 34 33 0 18
-14 15 -35 -8 -17 -19 -45 -27 -45 -13 0 3 11 21 26 40 14 18 23 33 21 33 -3
0 -31 -12 -63 -26 -116 -53 -197 -72 -286 -70 -90 2 -123 16 -150 65 -20 38
-13 292 13 446 29 170 167 537 254 675 l28 44 17 -35 c17 -33 44 -139 55 -216
24 -162 89 -265 185 -294 63 -19 106 0 215 93 52 45 95 85 95 90 0 12 -17 10
-32 -4 -61 -58 -187 -124 -252 -132 -110 -14 -175 91 -191 307 -3 34 -8 85
-11 112 -12 84 -10 168 3 213 14 49 65 127 125 193 24 26 61 67 83 93 49 56
89 76 112 53 19 -18 32 -83 33 -157 0 -73 22 -192 58 -316 36 -121 63 -185 97
-226 16 -19 24 -38 21 -54 -3 -13 0 -26 5 -29 13 -9 11 -19 -9 -41 -23 -26
-115 -135 -131 -156 -16 -21 1 -25 21 -5 7 7 28 23 47 36 26 19 35 21 41 10 5
-7 7 -16 5 -19 -2 -3 -6 -21 -9 -40 -18 -109 -159 -423 -215 -479 -57 -58
-119 -156 -107 -169 3 -3 15 7 27 22 11 14 26 32 33 39 26 26 134 174 159 218
21 35 93 220 111 284 2 6 6 17 9 25 3 8 15 47 27 85 35 110 60 165 111 242 26
39 55 85 63 101 14 27 46 154 61 242 3 19 8 42 10 50 2 8 7 31 10 50 3 19 10
51 15 70 5 19 11 55 14 80 3 25 8 56 11 70 3 14 8 77 11 140 6 119 10 160 17
167 26 26 143 13 252 -28 74 -28 169 -91 226 -151 61 -64 219 -373 219 -427 0
-30 -15 -49 -128 -165 -145 -148 -192 -204 -250 -294 -68 -105 -159 -341 -192
-497 -32 -150 -20 -363 24 -430 19 -29 107 -75 143 -75 12 0 35 8 51 17 25 14
32 15 46 4 9 -7 16 -20 16 -27 0 -22 8 -18 87 41 67 51 93 76 153 145 51 59
126 259 152 405 12 69 13 82 5 119 -2 11 5 36 15 57 16 34 17 47 7 111 -22
153 -22 158 -6 176 9 10 15 28 14 40 -1 25 -17 31 -17 7 0 -12 -4 -13 -17 -6
-17 8 -18 0 -18 -122 -1 -124 -9 -251 -20 -307 -3 -14 -8 -38 -10 -55 -9 -49
-46 -179 -57 -195 -6 -11 -8 -4 -5 23 1 20 0 37 -3 37 -3 0 -21 -26 -40 -57
-144 -242 -222 -320 -330 -328 -19 -1 -47 4 -61 11 -36 18 -129 160 -115 175
2 2 6 39 10 81 11 144 47 268 126 435 81 171 164 284 355 480 72 74 95 82 110
35 12 -36 51 -80 61 -69 4 3 1 27 -6 52 -18 66 -15 103 12 132 28 31 292 160
411 202 48 17 89 30 92 30 3 0 20 3 38 6 42 7 105 13 140 14 25 1 27 4 27 46
l0 46 -32 -5 c-18 -3 -53 -8 -78 -11 -82 -11 -98 -14 -142 -25 -140 -37 -254
-90 -353 -166 -94 -71 -119 -80 -145 -52 -11 12 -20 28 -20 35 0 7 -11 15 -24
19 -32 8 -53 78 -22 72 25 -5 19 11 -18 54 -37 41 -44 58 -26 58 13 0 -75 132
-121 181 -108 116 -316 215 -462 221 -67 2 -94 31 -99 107 -3 38 -18 60 -18
26 0 -8 -5 -15 -10 -15 -6 0 -9 19 -6 45 4 57 -9 131 -34 189 -16 35 -32 51
-78 77 -51 29 -65 32 -126 31 -78 -3 -95 7 -196 108 -139 140 -332 222 -527
225 -51 1 -94 0 -96 -2z m951 -425 c31 -16 48 -51 68 -134 23 -103 27 -170 9
-203 -16 -32 -42 -45 -68 -35 -20 7 -66 102 -74 150 -6 39 -23 47 -18 9 4 -45
-10 -26 -38 48 -30 81 -35 113 -13 85 21 -28 26 -21 12 15 -7 17 -12 38 -10
45 1 6 2 16 3 21 3 21 88 20 129 -1z m-188 -58 c32 -17 55 -120 30 -135 -16
-10 -79 42 -86 71 -4 15 0 34 10 49 19 28 20 29 46 15z m-193 -168 c31 -20 33
-59 14 -303 -1 -15 -293 -319 -306 -319 -6 0 3 148 10 160 2 3 6 25 10 50 21
140 87 329 129 369 46 43 112 63 143 43z m168 -29 c62 -62 74 -140 28 -183
-21 -19 -81 -50 -98 -50 -6 0 -12 19 -14 47 -1 26 -4 50 -6 53 -3 4 0 36 6 71
15 95 35 110 84 62z m-1889 -198 c13 -33 20 -145 8 -145 -3 0 -14 5 -25 10
-11 6 -19 7 -18 3 6 -33 -15 -46 -25 -15 -9 27 -6 37 10 34 10 -2 6 13 -16 51
-36 65 -38 94 -7 106 30 12 56 -4 73 -44z m2217 -17 c2 -18 3 -69 1 -113 -7
-166 -24 -205 -49 -118 -7 22 -27 59 -44 80 -31 39 -46 90 -26 93 6 1 18 -18
27 -41 12 -32 17 -37 17 -21 1 12 -6 39 -14 59 -30 71 -20 89 51 92 28 1 32
-3 37 -31z m-235 -41 c17 -20 31 -572 18 -692 -8 -72 -15 -98 -30 -107 -20
-14 -35 -8 -52 17 -17 26 -67 201 -84 295 -6 30 -12 64 -14 75 -29 146 -31
310 -4 342 25 30 110 77 149 82 4 1 11 -5 17 -12z m-2080 -106 c60 -60 67 -89
65 -266 -2 -165 -8 -225 -22 -225 -19 0 -65 156 -76 260 -11 93 -14 260 -5
260 5 0 22 -13 38 -29z m2176 -23 c20 -67 35 -128 41 -168 4 -25 9 -54 12 -65
2 -11 4 -63 5 -115 1 -76 -3 -104 -19 -140 l-20 -45 -13 30 c-10 26 -12 97 -8
245 1 35 -12 232 -17 258 -5 29 11 28 19 0z m-25 -140 c1 -31 -14 -45 -23 -22
-8 22 -8 69 1 78 9 9 21 -21 22 -56z m957 -223 c16 -39 18 -75 4 -75 -5 0 -12
17 -16 38 -4 20 -11 45 -16 55 -6 11 -5 17 2 17 6 0 18 -16 26 -35z m-146
-1327 c-1 -18 -25 -48 -39 -48 -15 0 -14 11 5 38 17 24 34 29 34 10z m-113
-125 c-3 -2 -18 -3 -34 -1 l-28 3 30 17 c26 14 30 14 33 1 2 -8 2 -17 -1 -20z"/>
</g>
</svg>
