<?xml version="1.0" encoding="utf-8"?>
<!-- Generator: Adobe Illustrator 23.0.1, SVG Export Plug-In . SVG Version: 6.00 Build 0)  -->
<svg version="1.1" id="Layer_1" xmlns="http://www.w3.org/2000/svg" xmlns:xlink="http://www.w3.org/1999/xlink" x="0px" y="0px"
	 viewBox="0 0 1000 497.4" style="enable-background:new 0 0 1000 497.4;" xml:space="preserve">
<style type="text/css">
	.st0{fill:#A64310;}
</style>
<g>
	<path class="st0" d="M659.6,8.8c0,87.9-71.4,159.1-159.6,159.1c-88.1,0-159.6-71.3-159.6-159.1c0-3,0.7-5.8,0.9-8.8h-82.6
		c-0.1,3-0.9,5.7-0.9,8.8c0,133.3,108.4,241.5,242.2,241.5S742.2,142.2,742.2,8.8c0-3-0.8-5.8-0.9-8.8h-82.6
		C658.9,3,659.6,5.8,659.6,8.8z"/>
	<path class="st0" d="M824.8,8.8c0,178.9-145.4,323.9-324.8,323.9c-179.3,0-324.8-145-324.8-323.9c0-3,0.4-5.9,0.5-8.8H93
		c-0.1,3-0.5,5.8-0.5,8.8C92.5,233.1,274.9,415,499.9,415C725,415,907.3,233.1,907.3,8.8c0-3-0.4-5.8-0.4-8.8h-82.6
		C824.4,3,824.8,5.8,824.8,8.8z"/>
	<path class="st0" d="M423,8.8c0,42.4,34.5,76.8,77,76.8s77-34.4,77-76.8c0-3.1-1.4-5.7-1.8-8.8H424.8C424.4,3.1,423,5.7,423,8.8z"
		/>
	<path class="st0" d="M990,8.8c0-3-0.4-5.8-0.4-8.8H907c0.1,3,0.5,5.8,0.5,8.8C907.5,233.1,725,415,500,415S92.6,233.1,92.6,8.8
		c0-3,0.4-5.8,0.5-8.8H10.5C10.4,3,10,5.8,10,8.8c0,269.8,219.4,488.6,490,488.6S990,278.6,990,8.8z"/>
	<path class="st0" d="M500,332.7c179.4,0,324.8-145,324.8-323.9c0-3-0.4-5.8-0.5-8.8h-83c0.1,3,0.9,5.7,0.9,8.8
		c0,133.3-108.4,241.5-242.2,241.5S257.8,142.2,257.8,8.8c0-3,0.8-5.8,0.9-8.8h-83c-0.1,3-0.5,5.8-0.5,8.8
		C175.2,187.7,320.6,332.7,500,332.7z"/>
	<path class="st0" d="M500,167.9c88.2,0,159.6-71.3,159.6-159.1c0-3-0.7-5.8-0.9-8.8h-83.5c0.4,3,1.8,5.7,1.8,8.8
		c0,42.4-34.5,76.8-77,76.8s-77-34.4-77-76.8c0-3.1,1.4-5.7,1.8-8.8h-83.5c-0.2,3-0.9,5.7-0.9,8.8C340.4,96.7,411.9,167.9,500,167.9
		z"/>
</g>
</svg>
