<?xml version="1.0" encoding="utf-8"?>
<!-- Generator: Adobe Illustrator 23.0.1, SVG Export Plug-In . SVG Version: 6.00 Build 0)  -->
<svg version="1.1" id="Layer_1" xmlns="http://www.w3.org/2000/svg" xmlns:xlink="http://www.w3.org/1999/xlink" x="0px" y="0px"
	 viewBox="0 0 1000 1000" style="enable-background:new 0 0 1000 1000;" xml:space="preserve">
<style type="text/css">
	.st0{fill:#BADA55;}
</style>
<g>
	<path class="st0" d="M659.6,260.1c0,87.9-71.4,159.1-159.6,159.1c-88.1,0-159.6-71.3-159.6-159.1c0-3,0.7-5.8,0.9-8.8h-82.6
		c-0.1,3-0.9,5.7-0.9,8.8c0,133.3,108.4,241.5,242.2,241.5s242.2-108.1,242.2-241.5c0-3-0.8-5.8-0.9-8.8h-82.6
		C658.9,254.3,659.6,257.1,659.6,260.1z"/>
	<path class="st0" d="M824.8,260.1C824.8,439,679.4,584,500,584c-179.3,0-324.8-145-324.8-323.9c0-3,0.4-5.9,0.5-8.8H93
		c-0.1,3-0.5,5.8-0.5,8.8c0,224.3,182.4,406.2,407.4,406.2c225.1,0,407.4-181.9,407.4-406.2c0-3-0.4-5.8-0.4-8.8h-82.6
		C824.4,254.3,824.8,257.1,824.8,260.1z"/>
	<path class="st0" d="M423,260.1c0,42.4,34.5,76.8,77,76.8s77-34.4,77-76.8c0-3.1-1.4-5.7-1.8-8.8H424.8
		C424.4,254.4,423,257,423,260.1z"/>
	<path class="st0" d="M990,260.1c0-3-0.4-5.8-0.4-8.8H907c0.1,3,0.5,5.8,0.5,8.8c0,224.3-182.5,406.2-407.5,406.2
		S92.6,484.4,92.6,260.1c0-3,0.4-5.8,0.5-8.8H10.5c-0.1,3-0.5,5.8-0.5,8.8c0,269.8,219.4,488.6,490,488.6S990,529.9,990,260.1z"/>
	<path class="st0" d="M500,584c179.4,0,324.8-145,324.8-323.9c0-3-0.4-5.8-0.5-8.8h-83c0.1,3,0.9,5.7,0.9,8.8
		c0,133.3-108.4,241.5-242.2,241.5S257.8,393.5,257.8,260.1c0-3,0.8-5.8,0.9-8.8h-83c-0.1,3-0.5,5.8-0.5,8.8
		C175.2,439,320.6,584,500,584z"/>
	<path class="st0" d="M500,419.2c88.2,0,159.6-71.3,159.6-159.1c0-3-0.7-5.8-0.9-8.8h-83.5c0.4,3,1.8,5.7,1.8,8.8
		c0,42.4-34.5,76.8-77,76.8s-77-34.4-77-76.8c0-3.1,1.4-5.7,1.8-8.8h-83.5c-0.2,3-0.9,5.7-0.9,8.8C340.4,348,411.9,419.2,500,419.2z
		"/>
</g>
</svg>
